<svg xmlns="http://www.w3.org/2000/svg" width="1440" height="560" preserveAspectRatio="none"><g mask="url(&quot;#SvgjsMask1378&quot;)" fill="none"><path fill="url(#SvgjsLinearGradient1379)" d="M0 0h1440v560H0z"/><path d="M47.064 387.093c15.392.636 27.155-11.927 34.998-25.186 8.027-13.57 14.252-30.454 5.78-43.75-8.117-12.74-25.705-12.179-40.778-11.177-12.875.855-25.882 4.878-32.361 16.037-6.502 11.199-3.8 24.631 2.038 36.19 6.635 13.138 15.618 27.278 30.323 27.886m1145.304 252.892c31.407-2.151 55.733-23.377 72.573-49.975 18.488-29.201 35.477-64.392 19.111-94.834-16.933-31.497-55.924-39.973-91.684-40.157-36.168-.187-74.065 8.596-93.337 39.202-20.383 32.37-19.397 74.851 1.231 107.066 19.247 30.059 56.496 41.136 92.106 38.698" fill="rgba(206, 95, 248, 0.12)" class="triangle-float2"/><path d="M1286.234 294.51c47.365-2.148 92.679-23.725 115.564-65.251 22.178-40.243 14.21-88.589-8.895-128.307-22.955-39.46-61.07-68.175-106.669-70.35-49.651-2.368-98.969 17.467-125.883 59.257-29.223 45.375-37.663 104.805-9.386 150.776 27.254 44.308 83.303 56.232 135.269 53.875" fill="rgba(206, 95, 248, 0.12)" class="triangle-float1"/><path d="M1380.237 235.168c14.807.26 28.704-7.089 36.473-19.696 8.179-13.272 10.018-29.902 2.511-43.565-7.771-14.143-22.851-22.44-38.984-22.816-16.843-.393-34.409 6.017-42.262 20.923-7.481 14.199-.789 30.75 7.945 44.214 7.816 12.05 19.956 20.688 34.317 20.94" fill="rgba(206, 95, 248, 0.12)" style="animation:float3 6s infinite"/><path d="M811.866 546.297c28.5-1.519 54.276-15.726 69.071-40.132 15.398-25.401 19.251-56.604 5.546-82.958-14.793-28.447-42.565-50.693-74.617-49.864-30.976.801-52.476 26.869-68.217 53.559-16.087 27.276-30.615 59.881-14.905 87.376 15.788 27.632 51.343 33.713 83.122 32.019" fill="rgba(206, 95, 248, 0.12)" class="triangle-float2"/><path d="M607.155 535.854c20.513 1.633 39.431-11.311 49.672-29.16 10.193-17.765 10.535-39.794-.049-57.328-10.256-16.99-29.778-24.879-49.623-24.958-20.002-.08-41.373 6.667-50.312 24.561-8.356 16.726 3.309 34.595 12.678 50.775 9.338 16.126 19.059 34.631 37.634 36.11" fill="rgba(206, 95, 248, 0.12)" class="triangle-float1"/></g><defs><linearGradient x1="84.72%" y1="139.29%" x2="15.28%" y2="-39.29%" gradientUnits="userSpaceOnUse" id="SvgjsLinearGradient1379"><stop stop-color="#0e2a47" offset="0"/><stop stop-color="rgba(19, 19, 27, 1)" offset=".99"/></linearGradient><style>@keyframes float1{0%{transform:translate(0,0)}50%{transform:translate(-10px,0)}}@keyframes float2{0%{transform:translate(0,0)}50%{transform:translate(-5px,-5px)}}@keyframes float3{0%{transform:translate(0,0)}50%{transform:translate(0,-10px)}}.triangle-float1{animation:float1 5s infinite}.triangle-float2{animation:float2 4s infinite}</style><mask id="SvgjsMask1378"><path fill="#fff" d="M0 0h1440v560H0z"/></mask></defs></svg>